<svg viewBox="0 0 200 200" height="200" width="200" xmlns="http://www.w3.org/2000/svg" data-type="color">
    <g>
        <path d="M159.4 121.9L122 115l2.9 17.7-7.3 12.7L155 140v-.2l4.4-17.9z" fill="#31b1ff" data-color="1"/>
        <path d="M171.1 117.9h-4c.2 1.6.3 3.4.3 5.4 0 6.6-.7 12-1.6 12-.9 0-1.6-5.4-1.6-12 0-1.9.1-3.7.3-5.4h-4.1l-1 4-4.4 17.9v.2l1.7 22.8h18l1.7-23-5.3-21.9z" fill="#176eff" data-color="2"/>
        <path d="M157.2 169.2l9 5.3 8-5.3.5-6.4h-18l.5 6.4z" fill="#83d0ff" data-color="3"/>
        <path d="M165.8 135.3c.9 0 1.6-5.4 1.6-12 0-1.9-.1-3.7-.3-5.4-.5-3.9-1.3-6.7-1.3-6.7s-.8 2.7-1.3 6.7c-.2 1.8-.3 3.6-.3 5.4 0 6.6.7 12 1.6 12z" fill="#83d0ff" data-color="3"/>
        <path d="M91.9 55.8c-1.8.5-3 1.2-3 1.9h2.7l.3-1.9z" fill="#31b1ff" data-color="1"/>
        <path d="M111.1 57.7c0-.7-1.1-1.3-2.7-1.8l.3 1.8h2.4z" fill="#31b1ff" data-color="1"/>
        <path d="M92.2 180H108l2-16.8H90.2l2 16.8z" fill="#83d0ff" data-color="3"/>
        <path d="M78.3 115l-37.7 7 4.4 17.9v.2l37.8 5.5-7.4-12.8 2.9-17.8z" fill="#31b1ff" data-color="1"/>
        <path d="M40.6 121.9l-1-4h-4.1c.2 1.6.3 3.4.3 5.4 0 6.6-.7 12-1.6 12s-1.6-5.4-1.6-12c0-1.9.1-3.7.3-5.4h-4l-5.4 22 1.7 23h18L45 140v-.2l-4.4-17.9z" fill="#176eff" data-color="2"/>
        <path d="M25.7 169.2l8 5.3 9-5.3.5-6.4h-18c0 .1.5 6.4.5 6.4z" fill="#83d0ff" data-color="3"/>
        <path d="M121.9 115l-9.4-57.3h-3.9l-.3-1.8-5.4-35.9h-5.5l-5.5 35.8-.3 1.9h-3.8L78.3 115l-2.9 17.8 7.4 12.8 5 8.7h6.5l-4.1 8.8v.1h19.9v-.1l-4.1-8.8h6.5l5-8.7 7.3-12.7-2.9-17.9zm-39.6 20.8c-1 .2-1.9-.5-2-1.5l-1.7-10.4c-.2-1 .5-1.9 1.4-2s1.9.5 2 1.5l1.7 10.4c.2.9-.5 1.8-1.4 2zM99.9 111v35.5c-7.8 0-14.1-18.8-14.1-42s6.3-42 14.1-42V111zm.1 35.5v-84c7.8 0 14.1 18.8 14.1 42s-6.3 42-14.1 42zm21.5-22.6l-1.7 10.4c-.2 1-1.1 1.6-2 1.5-1-.2-1.6-1.1-1.4-2l1.7-10.4c.2-1 1.1-1.6 2-1.5.9.1 1.5 1 1.4 2z" fill="#176eff" data-color="2"/>
        <path d="M100 62.5v83.9c7.8 0 14.1-18.8 14.1-42 0-23.1-6.3-41.9-14.1-41.9z" fill="#83d0ff" data-color="3"/>
        <path d="M34.2 135.3c.9 0 1.6-5.4 1.6-12 0-1.9-.1-3.7-.3-5.4-.5-3.9-1.3-6.7-1.3-6.7s-.8 2.7-1.3 6.7c-.2 1.8-.3 3.6-.3 5.4 0 6.6.7 12 1.6 12z" fill="#83d0ff" data-color="3"/>
        <path d="M83.7 133.8L82 123.3c-.2-1-1.1-1.6-2-1.5-1 .2-1.6 1.1-1.4 2l1.7 10.4c.2 1 1.1 1.6 2 1.5.9-.1 1.6-1 1.4-1.9z" fill="#83d0ff" data-color="3"/>
        <path d="M120 121.9c-1-.2-1.9.5-2 1.5l-1.7 10.4c-.2 1 .5 1.9 1.4 2 1 .2 1.9-.5 2-1.5l1.7-10.4c.2-1-.4-1.9-1.4-2z" fill="#83d0ff" data-color="3"/>
    </g>
</svg>
